<?xml version="1.0" encoding="UTF-8"?>
<!DOCTYPE svg PUBLIC "-//W3C//DTD SVG 1.1//EN" "http://www.w3.org/Graphics/SVG/1.1/DTD/svg11.dtd">
<!-- Creator: CorelDRAW 2021 (64 Bit) -->
<svg xmlns="http://www.w3.org/2000/svg" xml:space="preserve" width="64" height="64" version="1.1" style="shape-rendering:geometricPrecision; text-rendering:geometricPrecision; image-rendering:optimizeQuality; fill-rule:evenodd; clip-rule:evenodd"
viewBox="0 0 892.73 668.04"
 xmlns:xlink="http://www.w3.org/1999/xlink"
 xmlns:xodm="http://www.corel.com/coreldraw/odm/2003">
 <defs>
  <style type="text/css">
   <![CDATA[
    .fil0 {fill:black}
   ]]>
  </style>
 </defs>
 <g id="Camada_x0020_1">
  <metadata id="CorelCorpID_0Corel-Layer"/>
  <path class="fil0" d="M45.95 551.4zm0 0zm0 0c6.11,-8.34 113.7,-80.24 120.17,-84.84l29.82 -21.43c22.58,-12.72 118.93,0.41 141.13,4.25 28.11,4.86 55.87,11.83 84.25,18.26 94.18,21.34 152.42,41.31 259.09,50.19 -16.07,24 -61.59,57.96 -86.24,72.81 -11.81,7.11 -23.39,12.49 -36.28,18.51 -42.51,19.82 -122.39,37.75 -181.49,23.6 -32.15,-7.7 -46.07,-20.22 -69.94,-36.1 -41.79,-27.81 -66.83,-36.88 -114.25,-46.57 -7.77,-1.59 -15.68,-2.64 -22.85,-3.66 -9.16,-1.3 -15.97,-1.3 -25.71,-2.57 -13.23,-1.73 -35.26,-2.89 -51.27,-0.8l-46.42 8.37zm581.44 -70.69c-11.31,-2.64 -23.87,-3.78 -36.37,-6.05 -79.05,-14.32 -166.64,-37.23 -246.4,-55.81 0,-15.4 5.83,-43.8 9.18,-57.98 11.67,-49.49 27.67,-109.03 54.1,-152.67 4.65,-7.67 7.96,-13.76 12.71,-20.86 33.28,-49.77 73.11,-89.22 134.08,-108.04 23.1,-7.13 24.94,-7.3 49.54,16.32 0.26,0.25 0.64,0.61 0.9,0.87 0.26,0.26 0.62,0.63 0.87,0.9l11.08 11.89c4.28,5.38 10.75,15.44 13.87,21.48 15.5,30.01 27.93,73.76 28.32,109.53 0.1,9.01 1.81,26.31 1.27,31.34 -1.89,17.55 -1.41,36.4 -4.56,64.48 -5.08,45.29 -10.55,72.39 -21.53,116.32 -1.86,7.43 -6.5,21.48 -7.07,28.28zm14.14 -390.57c24.08,5.61 65.72,28.45 87.36,41.66 115.15,70.29 146.84,198.14 128.8,326.49 -6.98,49.64 -28.71,38.38 -69.52,34.85 -13.46,-1.16 -28.36,-3.74 -42.35,-3.6 -10.21,0.1 -13.65,-1.02 -21.32,-1.66 -7.26,-0.6 -15.57,0.19 -22.94,-0.03l-42.36 -3.59c0.16,-7.36 3.58,-16 5.3,-22.97l15.65 -72.71c12.12,-72.96 18.04,-152.61 -2.52,-224.96 -4.13,-14.53 -9.03,-27.99 -14.87,-39.92 -7.52,-15.36 -12.89,-21.06 -21.25,-33.54zm-326.95 325.18c-36.32,-3.02 -40.18,-5.3 -77.76,-5.3 -11.75,0 -15.3,1.77 -26.51,1.77 1.75,-3.64 4.32,-24.17 5.29,-30.06 4.18,-25.35 14.48,-64.76 22.71,-86.86 15.03,-40.33 23.02,-61.54 48,-96.92 38.79,-54.94 105.97,-91.86 182.03,-109.58l-31.38 28.7c-18.61,18.41 -37.95,46.72 -51.36,68.82 -7.83,12.91 -13.38,25.87 -20.36,39.73 -20.04,39.75 -50.65,146.95 -50.65,189.7zm238.58 -371.13c5.32,-19.92 49.59,-18.76 54.79,3.53 -29.94,-6.97 -27.53,-6.39 -54.79,-3.53zm-33.58 3.53c-42.67,0 -128.98,29.81 -169.58,53.1 -24.24,13.9 -57.29,37.91 -74.31,60.01 -45.39,58.94 -65.46,105.85 -84.49,182.37 -4.53,18.22 -12.71,58.86 -12.71,77.42 -5.43,1.45 -127.86,87.97 -140.88,97.7 -24.49,18.29 -37.61,25.08 -37.61,48.98 0,9.76 13.63,34.69 44.18,19.44 41.98,-20.95 125.82,-12.64 166.76,-0.64 115.48,33.85 89.21,81.93 223.81,81.93 65.97,0 127.9,-22.96 169.34,-48.04l32.12 -20.9c5.31,-3.72 9.43,-7.3 14.92,-11.59 3.94,-3.08 4.21,-3.45 7.67,-6.46 3.46,-3.01 4.47,-3.24 7.89,-6.25 15.71,-13.84 41.22,-40.01 52.59,-56.98 33.28,0.74 81.07,8.84 107.8,8.84 73.25,0 65.39,-99.63 65.39,-151.99 0,-71.02 -25.01,-140.54 -63.1,-191.39 -14.78,-19.73 -34.03,-39.07 -53.13,-54.67l-37.17 -26.45c-22.14,-14.25 -60.02,-32.33 -86.28,-40.96 -8.37,-2.75 -11.16,-1.1 -12.93,-8.28 -1.69,-6.86 -1.1,-11.26 -3.36,-17.85 -5.97,-17.43 -28.35,-35.06 -51.54,-35.06 -18.78,0 -32.57,-0.71 -49.09,14.53 -8.21,7.57 -15.14,19.3 -16.3,33.18z"/>
 </g>
</svg>
