<?xml version="1.0" standalone="no"?>
<!DOCTYPE svg PUBLIC "-//W3C//DTD SVG 20010904//EN" "http://www.w3.org/TR/2001/REC-SVG-20010904/DTD/svg10.dtd">
<svg version="1.0" xmlns="http://www.w3.org/2000/svg" width="268.000000pt" height="184.000000pt" viewBox="0 0 268.000000 184.000000" preserveAspectRatio="xMidYMid meet">
  <g transform="translate(0.000000,184.000000) scale(0.100000,-0.100000)" fill="#000000" stroke="none">
    <path d="M1111 1619 c-231 -29 -421 -252 -421 -494 0 -178 113 -365 268 -442 l61 -31 -107 -7 c-130 -8 -385 -35 -391 -41 -2 -2 296 -4 664 -4 368 0 666 2 663 5 -7 7 -235 31 -380 41 l-106 7 61 30 c81 40 173 135 214 218 100 207 50 458 -121 603 -114 97 -247 135 -405 115z m252 -124 c257 -125 315 -458 115 -658 -29 -29 -80 -66 -113 -83 -56 -27 -68 -29 -175 -29 -107 0 -119 2 -175 29 -175 86 -270 289 -221 471 35 132 116 224 251 283 43 20 64 22 155 19 91 -3 113 -7 163 -32z"/>
    <path d="M1089 1497 c-101 -29 -201 -114 -250 -214 -21 -41 -24 -63 -24 -153 0 -93 3 -112 27 -162 114 -245 431 -304 616 -115 155 158 155 386 0 544 -68 69 -146 104 -247 109 -44 2 -95 -1 -122 -9z m111 -107 c0 -53 -4 -90 -10 -90 -6 0 -10 37 -10 90 0 53 4 90 10 90 6 0 10 -37 10 -90z m-86 28 c8 -18 19 -59 26 -91 10 -52 10 -61 -6 -78 -24 -26 -34 -24 -87 16 -62 47 -91 89 -83 121 8 31 61 64 104 64 28 0 35 -5 46 -32z m275 3 c17 -16 31 -39 31 -51 0 -24 -96 -124 -130 -135 -52 -16 -66 61 -29 160 20 54 21 55 59 55 28 0 46 -7 69 -29z m-395 -171 c33 -19 54 -36 48 -38 -16 -5 -144 69 -150 88 -4 12 -1 12 19 -1 13 -9 51 -31 83 -49z m489 36 c-49 -33 -134 -77 -144 -74 -5 2 25 24 68 49 43 26 82 44 86 42 5 -3 0 -11 -10 -17z m-281 -61 c0 -5 -5 -11 -11 -13 -6 -2 -11 4 -11 13 0 9 5 15 11 13 6 -2 11 -8 11 -13z m-217 -42 c63 -20 75 -29 75 -60 0 -34 -75 -67 -155 -68 l-60 0 -9 36 c-10 42 -3 81 20 104 18 18 41 15 129 -12z m539 14 c22 -16 31 -83 17 -119 -9 -25 -16 -28 -56 -28 -49 0 -143 32 -157 52 -25 40 5 66 104 92 67 19 71 19 92 3z m-404 -22 c0 -8 -7 -15 -15 -15 -8 0 -15 7 -15 15 0 8 7 15 15 15 8 0 15 -7 15 -15z m170 -1 c0 -17 -22 -14 -28 4 -2 7 3 12 12 12 9 0 16 -7 16 -16z m-62 -16 c7 -7 12 -21 12 -33 0 -29 -19 -45 -52 -45 -36 0 -56 36 -39 69 13 23 59 29 79 9z m-108 -83 c0 -8 -7 -15 -15 -15 -8 0 -15 7 -15 15 0 8 7 15 15 15 8 0 15 -7 15 -15z m170 -1 c0 -17 -22 -14 -28 4 -2 7 3 12 12 12 9 0 16 -7 16 -16z m-254 -43 c-10 -15 -136 -83 -148 -79 -6 2 25 25 68 50 76 44 93 50 80 29z m418 -47 c27 -15 44 -30 38 -32 -15 -5 -152 76 -152 89 0 6 15 2 33 -9 17 -11 54 -32 81 -48z m-254 41 c0 -8 -4 -15 -10 -15 -5 0 -10 7 -10 15 0 8 5 15 10 15 6 0 10 -7 10 -15z m-60 -25 c14 -26 -4 -126 -31 -169 -23 -37 -56 -41 -105 -10 -65 40 -51 92 43 164 52 40 78 44 93 15z m187 -9 c61 -44 97 -95 89 -126 -12 -48 -107 -85 -135 -52 -35 43 -57 181 -30 198 22 14 33 11 76 -20z m-127 -121 c0 -53 -4 -90 -10 -90 -11 0 -14 162 -3 173 12 13 13 7 13 -83z"/>
  </g>
</svg>