<svg width="253" height="44" viewBox="0 0 253 44" fill="none" xmlns="http://www.w3.org/2000/svg">
<path d="M3.21231 2.75418C2.54551 2.86633 1.9424 3.18036 1.45541 3.66635C1.09579 4.02897 0.942197 4.25327 0.743656 4.72057C0.485177 5.31497 0.500162 4.93366 0.500162 11.7001C0.500162 18.3208 0.49267 18.0591 0.706195 18.6199C0.852292 19.0124 1.07706 19.3638 1.39547 19.6965C1.84874 20.1713 2.33573 20.4554 2.98006 20.6274L3.29098 20.7096L9.26595 20.7246C13.5177 20.7321 15.3496 20.7246 15.6118 20.6947C16.391 20.605 17.0203 20.3096 17.5597 19.775C17.9606 19.3788 18.1966 18.9937 18.3914 18.4143L18.5 18.0965V11.7413V5.386L18.4138 5.09067C18.0992 4.0028 17.2825 3.1841 16.1774 2.83643L15.8403 2.73175L9.62183 2.72801C6.20167 2.72427 3.3172 2.73549 3.21231 2.75418ZM7.20187 9.49449C8.46429 10.7057 9.48697 11.7114 9.48322 11.7263C9.47573 11.7413 8.43807 12.7469 7.17565 13.9619L4.87557 16.1712L4.27994 15.5993C3.95403 15.289 3.68432 15.0123 3.68806 14.9937C3.68806 14.9712 4.44851 14.231 5.37379 13.3488C6.29532 12.4628 7.05203 11.73 7.05577 11.7188C7.05577 11.7039 6.29907 10.9637 5.37005 10.0739C4.44477 9.1842 3.68432 8.44774 3.68432 8.43653C3.68432 8.38793 4.83061 7.27389 4.86807 7.28136C4.8943 7.28884 5.94319 8.28325 7.20187 9.49449ZM15.372 15.4796V16.1712H13.1993H11.0266V15.4796V14.788H13.1993H15.372V15.4796Z" fill="#C92071"/>
<path d="M29.1803 19H24.2878V4.56229H29.279C30.7124 4.56229 31.9437 4.85133 32.973 5.4294C34.0069 6.00277 34.8012 6.82758 35.3558 7.90383C35.9103 8.98008 36.1876 10.2678 36.1876 11.767C36.1876 13.271 35.908 14.5634 35.3487 15.6444C34.7942 16.7253 33.9928 17.5548 32.9448 18.1329C31.9014 18.711 30.6466 19 29.1803 19ZM26.9032 16.7371H29.0534C30.0591 16.7371 30.898 16.5538 31.5701 16.1872C32.2422 15.8159 32.7474 15.2637 33.0858 14.5305C33.4242 13.7926 33.5934 12.8715 33.5934 11.767C33.5934 10.6626 33.4242 9.74614 33.0858 9.01768C32.7474 8.28451 32.2469 7.73699 31.5842 7.37511C30.9262 7.00852 30.1085 6.82523 29.1309 6.82523H26.9032V16.7371ZM38.3613 19V8.17172H40.9133V19H38.3613ZM39.6444 6.63489C39.2402 6.63489 38.8924 6.50095 38.601 6.23306C38.3096 5.96047 38.1639 5.63384 38.1639 5.25316C38.1639 4.86777 38.3096 4.54114 38.601 4.27325C38.8924 4.00067 39.2402 3.86437 39.6444 3.86437C40.0532 3.86437 40.401 4.00067 40.6877 4.27325C40.9791 4.54114 41.1248 4.86777 41.1248 5.25316C41.1248 5.63384 40.9791 5.96047 40.6877 6.23306C40.401 6.50095 40.0532 6.63489 39.6444 6.63489ZM48.0482 23.2862C47.1317 23.2862 46.3445 23.1617 45.6866 22.9126C45.0286 22.6682 44.4999 22.3392 44.1004 21.9256C43.7009 21.512 43.4236 21.0538 43.2685 20.5509L45.5667 19.994C45.6701 20.2055 45.8205 20.4146 46.0179 20.6214C46.2153 20.8329 46.4808 21.0068 46.8145 21.1431C47.1529 21.2841 47.5782 21.3546 48.0905 21.3546C48.8143 21.3546 49.4135 21.1783 49.8882 20.8259C50.3628 20.4781 50.6002 19.9047 50.6002 19.1057V17.0543H50.4733C50.3417 17.3175 50.149 17.5877 49.8952 17.865C49.6461 18.1423 49.3148 18.3749 48.9012 18.5629C48.4923 18.7509 47.9777 18.8449 47.3573 18.8449C46.5255 18.8449 45.7712 18.6499 45.0944 18.2598C44.4223 17.865 43.8865 17.2775 43.4871 16.4974C43.0923 15.7125 42.8949 14.7303 42.8949 13.5506C42.8949 12.3616 43.0923 11.3582 43.4871 10.5404C43.8865 9.71794 44.4247 9.09522 45.1014 8.67224C45.7782 8.24456 46.5325 8.03072 47.3644 8.03072C47.9989 8.03072 48.5205 8.13882 48.9294 8.35501C49.343 8.5665 49.672 8.82264 49.9164 9.12342C50.1607 9.41951 50.3464 9.69914 50.4733 9.96233H50.6143V8.17172H53.131V19.1762C53.131 20.1021 52.9101 20.8682 52.4683 21.4744C52.0266 22.0807 51.4226 22.5342 50.6566 22.835C49.8905 23.1358 49.0211 23.2862 48.0482 23.2862ZM48.0693 16.8428C48.6098 16.8428 49.0704 16.7112 49.4511 16.448C49.8318 16.1848 50.1208 15.8065 50.3182 15.313C50.5156 14.8195 50.6143 14.2274 50.6143 13.5365C50.6143 12.855 50.5156 12.2582 50.3182 11.7459C50.1255 11.2336 49.8388 10.8365 49.4581 10.5545C49.0821 10.2678 48.6192 10.1245 48.0693 10.1245C47.5007 10.1245 47.026 10.2725 46.6453 10.5686C46.2646 10.8647 45.9779 11.2712 45.7853 11.7882C45.5926 12.3005 45.4962 12.8832 45.4962 13.5365C45.4962 14.1992 45.5926 14.7796 45.7853 15.2778C45.9826 15.7713 46.2717 16.1566 46.6524 16.4339C47.0377 16.7065 47.5101 16.8428 48.0693 16.8428ZM55.5479 19V8.17172H58.0999V19H55.5479ZM56.831 6.63489C56.4268 6.63489 56.079 6.50095 55.7876 6.23306C55.4962 5.96047 55.3505 5.63384 55.3505 5.25316C55.3505 4.86777 55.4962 4.54114 55.7876 4.27325C56.079 4.00067 56.4268 3.86437 56.831 3.86437C57.2398 3.86437 57.5876 4.00067 57.8743 4.27325C58.1657 4.54114 58.3114 4.86777 58.3114 5.25316C58.3114 5.63384 58.1657 5.96047 57.8743 6.23306C57.5876 6.50095 57.2398 6.63489 56.831 6.63489ZM65.9327 8.17172V10.1456H59.7078V8.17172H65.9327ZM61.2447 5.57744H63.7967V15.7431C63.7967 16.0861 63.8483 16.3493 63.9517 16.5326C64.0598 16.7112 64.2008 16.8334 64.3747 16.8992C64.5486 16.965 64.7413 16.9979 64.9528 16.9979C65.1126 16.9979 65.2583 16.9861 65.3899 16.9626C65.5262 16.9391 65.6296 16.918 65.7001 16.8992L66.1301 18.8943C65.9938 18.9413 65.7988 18.993 65.545 19.0493C65.2959 19.1057 64.9904 19.1386 64.6285 19.148C63.9893 19.1668 63.4136 19.0705 62.9013 18.859C62.3891 18.6428 61.9825 18.3091 61.6818 17.858C61.3857 17.4068 61.24 16.8428 61.2447 16.166V5.57744ZM70.9844 19.2185C70.2983 19.2185 69.6802 19.0963 69.1304 18.852C68.5852 18.6029 68.1528 18.2363 67.8332 17.7522C67.5183 17.2681 67.3609 16.6713 67.3609 15.9616C67.3609 15.3506 67.4737 14.8454 67.6993 14.4459C67.9249 14.0464 68.2327 13.7269 68.6228 13.4872C69.0129 13.2475 69.4523 13.0665 69.9411 12.9443C70.4345 12.8174 70.9445 12.7258 71.4708 12.6694C72.1053 12.6036 72.6199 12.5449 73.0147 12.4932C73.4095 12.4368 73.6962 12.3522 73.8748 12.2394C74.0581 12.1219 74.1497 11.9409 74.1497 11.6965V11.6543C74.1497 11.1232 73.9923 10.7119 73.6774 10.4206C73.3625 10.1292 72.909 9.98348 72.3168 9.98348C71.6917 9.98348 71.1959 10.1198 70.8293 10.3924C70.4674 10.6649 70.2231 10.9869 70.0962 11.3582L67.7134 11.0198C67.9014 10.3618 68.2116 9.81194 68.6439 9.37016C69.0763 8.92368 69.605 8.59 70.2301 8.36911C70.8552 8.14352 71.546 8.03072 72.3027 8.03072C72.8244 8.03072 73.3437 8.09182 73.8607 8.21401C74.3777 8.33621 74.85 8.5383 75.2777 8.82029C75.7053 9.09757 76.0484 9.4759 76.3069 9.95528C76.5701 10.4347 76.7017 11.0339 76.7017 11.7529V19H74.2484V17.5125H74.1638C74.0087 17.8133 73.7902 18.0953 73.5082 18.3585C73.2309 18.617 72.8808 18.8261 72.4578 18.9859C72.0395 19.141 71.5484 19.2185 70.9844 19.2185ZM71.6471 17.3433C72.1594 17.3433 72.6035 17.2423 72.9795 17.0402C73.3555 16.8334 73.6445 16.5608 73.8466 16.2224C74.0534 15.884 74.1568 15.5151 74.1568 15.1156V13.8396C74.0769 13.9054 73.9406 13.9665 73.7479 14.0229C73.5599 14.0793 73.3484 14.1287 73.1134 14.171C72.8784 14.2133 72.6458 14.2509 72.4155 14.2838C72.1852 14.3167 71.9855 14.3449 71.8163 14.3684C71.4356 14.4201 71.0949 14.5047 70.7941 14.6222C70.4933 14.7397 70.256 14.9041 70.0821 15.1156C69.9082 15.3224 69.8212 15.5903 69.8212 15.9193C69.8212 16.3893 69.9928 16.7441 70.3359 16.9838C70.6789 17.2235 71.116 17.3433 71.6471 17.3433ZM81.6212 4.56229V19H79.0693V4.56229H81.6212ZM96.7317 8.53125C96.6659 7.91558 96.3886 7.4362 95.8998 7.09312C95.4158 6.75003 94.786 6.57849 94.0105 6.57849C93.4654 6.57849 92.9977 6.66074 92.6076 6.82523C92.2176 6.98972 91.9191 7.21296 91.7123 7.49495C91.5055 7.77694 91.3998 8.09887 91.3951 8.46075C91.3951 8.76154 91.4632 9.02238 91.5995 9.24327C91.7405 9.46416 91.9309 9.65215 92.1706 9.80724C92.4103 9.95763 92.6758 10.0845 92.9672 10.1879C93.2586 10.2913 93.5523 10.3783 93.8484 10.4488L95.2019 10.7871C95.7471 10.914 96.2711 11.0856 96.774 11.3018C97.2816 11.518 97.7351 11.7905 98.1346 12.1195C98.5388 12.4485 98.8583 12.8456 99.0933 13.3109C99.3283 13.7762 99.4458 14.3214 99.4458 14.9464C99.4458 15.7924 99.2296 16.5373 98.7972 17.1812C98.3649 17.8204 97.7398 18.3209 96.922 18.6828C96.109 19.0399 95.1244 19.2185 93.9682 19.2185C92.845 19.2185 91.8698 19.0446 91.0426 18.6969C90.2202 18.3491 89.5763 17.8415 89.111 17.1741C88.6504 16.5068 88.4013 15.6937 88.3637 14.735H90.9369C90.9745 15.2378 91.1296 15.6561 91.4021 15.9898C91.6747 16.3235 92.0296 16.5726 92.4666 16.7371C92.9084 16.9016 93.4019 16.9838 93.9471 16.9838C94.5158 16.9838 95.0139 16.8992 95.4416 16.73C95.874 16.5561 96.2124 16.3164 96.4568 16.0109C96.7011 15.7008 96.8257 15.3389 96.8304 14.9253C96.8257 14.5493 96.7152 14.2391 96.4991 13.9947C96.2829 13.7457 95.9797 13.5389 95.5896 13.3744C95.2043 13.2052 94.7531 13.0548 94.2361 12.9232L92.5935 12.5002C91.4045 12.1947 90.4645 11.7318 89.7737 11.1114C89.0875 10.4864 88.7444 9.65685 88.7444 8.62289C88.7444 7.77224 88.9747 7.02732 89.4353 6.38815C89.9006 5.74898 90.5327 5.25316 91.3317 4.90067C92.1306 4.54349 93.0353 4.3649 94.0458 4.3649C95.0703 4.3649 95.968 4.54349 96.7387 4.90067C97.5142 5.25316 98.1228 5.74428 98.5646 6.37405C99.0064 6.99912 99.2343 7.71819 99.2484 8.53125H96.7317ZM106.873 8.17172V10.1456H100.648V8.17172H106.873ZM102.185 5.57744H104.737V15.7431C104.737 16.0861 104.789 16.3493 104.892 16.5326C105 16.7112 105.141 16.8334 105.315 16.8992C105.489 16.965 105.682 16.9979 105.893 16.9979C106.053 16.9979 106.199 16.9861 106.33 16.9626C106.467 16.9391 106.57 16.918 106.641 16.8992L107.071 18.8943C106.934 18.9413 106.739 18.993 106.486 19.0493C106.236 19.1057 105.931 19.1386 105.569 19.148C104.93 19.1668 104.354 19.0705 103.842 18.859C103.33 18.6428 102.923 18.3091 102.622 17.858C102.326 17.4068 102.181 16.8428 102.185 16.166V5.57744ZM113.416 19.2115C112.359 19.2115 111.442 18.9789 110.667 18.5136C109.891 18.0483 109.29 17.3974 108.862 16.5608C108.439 15.7243 108.227 14.7467 108.227 13.6282C108.227 12.5096 108.439 11.5297 108.862 10.6884C109.29 9.84719 109.891 9.19392 110.667 8.72864C111.442 8.26336 112.359 8.03072 113.416 8.03072C114.473 8.03072 115.39 8.26336 116.165 8.72864C116.941 9.19392 117.54 9.84719 117.963 10.6884C118.391 11.5297 118.605 12.5096 118.605 13.6282C118.605 14.7467 118.391 15.7243 117.963 16.5608C117.54 17.3974 116.941 18.0483 116.165 18.5136C115.39 18.9789 114.473 19.2115 113.416 19.2115ZM113.43 17.1671C114.003 17.1671 114.483 17.0096 114.868 16.6948C115.254 16.3752 115.54 15.9475 115.728 15.4117C115.921 14.8759 116.017 14.2791 116.017 13.6211C116.017 12.9584 115.921 12.3592 115.728 11.8234C115.54 11.283 115.254 10.8529 114.868 10.5334C114.483 10.2138 114.003 10.054 113.43 10.054C112.843 10.054 112.354 10.2138 111.964 10.5334C111.578 10.8529 111.289 11.283 111.097 11.8234C110.909 12.3592 110.815 12.9584 110.815 13.6211C110.815 14.2791 110.909 14.8759 111.097 15.4117C111.289 15.9475 111.578 16.3752 111.964 16.6948C112.354 17.0096 112.843 17.1671 113.43 17.1671ZM120.572 19V8.17172H123.046V9.97643H123.159C123.357 9.35136 123.695 8.86963 124.174 8.53125C124.658 8.18817 125.211 8.01662 125.831 8.01662C125.972 8.01662 126.13 8.02367 126.303 8.03777C126.482 8.04717 126.63 8.06362 126.748 8.08712V10.4347C126.639 10.3971 126.468 10.3642 126.233 10.336C126.003 10.3031 125.779 10.2866 125.563 10.2866C125.098 10.2866 124.68 10.3877 124.308 10.5898C123.942 10.7871 123.653 11.0621 123.441 11.4146C123.23 11.767 123.124 12.1736 123.124 12.6342V19H120.572ZM132.592 19.2115C131.507 19.2115 130.569 18.9859 129.78 18.5347C128.995 18.0788 128.391 17.435 127.968 16.6031C127.545 15.7666 127.333 14.782 127.333 13.6493C127.333 12.5355 127.545 11.5579 127.968 10.7166C128.395 9.87069 128.992 9.21272 129.758 8.74274C130.524 8.26806 131.424 8.03072 132.458 8.03072C133.126 8.03072 133.756 8.13882 134.348 8.35501C134.945 8.5665 135.471 8.89548 135.927 9.34196C136.387 9.78844 136.749 10.3571 137.012 11.048C137.276 11.7341 137.407 12.5519 137.407 13.5013V14.2838H128.532V12.5637H134.961C134.956 12.0749 134.851 11.6402 134.644 11.2595C134.437 10.8741 134.148 10.571 133.777 10.3501C133.41 10.1292 132.982 10.0187 132.494 10.0187C131.972 10.0187 131.514 10.1456 131.119 10.3994C130.724 10.6485 130.416 10.9775 130.195 11.3864C129.979 11.7905 129.869 12.2347 129.864 12.7187V14.2203C129.864 14.8501 129.979 15.3906 130.21 15.8418C130.44 16.2882 130.762 16.6313 131.175 16.871C131.589 17.106 132.073 17.2235 132.628 17.2235C132.999 17.2235 133.335 17.1718 133.636 17.0684C133.936 16.9603 134.197 16.8029 134.418 16.5961C134.639 16.3893 134.806 16.1331 134.919 15.8277L137.302 16.0955C137.151 16.7253 136.864 17.2752 136.441 17.7452C136.023 18.2104 135.487 18.5723 134.834 18.8308C134.181 19.0846 133.434 19.2115 132.592 19.2115Z" fill="#C92071"/>
</svg>
